<?xml version="1.0" encoding="UTF-8" standalone="no"?><!DOCTYPE svg PUBLIC "-//W3C//DTD SVG 1.1//EN" "http://www.w3.org/Graphics/SVG/1.1/DTD/svg11.dtd"><svg width="100%" height="100%" viewBox="0 0 65 15" version="1.1" xmlns="http://www.w3.org/2000/svg" xmlns:xlink="http://www.w3.org/1999/xlink" xml:space="preserve" xmlns:serif="http://www.serif.com/" style="fill-rule:evenodd;clip-rule:evenodd;stroke-linejoin:round;stroke-miterlimit:1.41421;"><g><path d="M0.036,0.207c0.071,-0.011 0.116,-0.017 0.136,-0.017c0.134,0 0.356,0.008 0.664,0.023c0.162,0.004 0.272,0.006 0.332,0.006c0.087,0 0.27,-0.008 0.551,-0.023l1.007,-0.06c0.265,-0.023 0.573,-0.035 0.925,-0.035c0.621,0 1.114,0.088 1.482,0.264c0.367,0.175 0.651,0.451 0.85,0.826c0.2,0.376 0.3,0.749 0.3,1.121c0,0.62 -0.218,1.155 -0.652,1.606c-0.435,0.45 -1.02,0.676 -1.755,0.676c-0.205,0 -0.377,-0.021 -0.515,-0.063c-0.139,-0.041 -0.297,-0.121 -0.474,-0.24c-0.076,-0.051 -0.121,-0.104 -0.137,-0.16c0.016,-0.027 0.038,-0.047 0.065,-0.059c0.056,0 0.113,0.012 0.172,0.036c0.135,0.047 0.305,0.071 0.51,0.071c0.312,0 0.608,-0.077 0.886,-0.232c0.279,-0.154 0.489,-0.373 0.631,-0.657c0.143,-0.285 0.214,-0.585 0.214,-0.901c0,-0.309 -0.075,-0.608 -0.225,-0.898c-0.151,-0.291 -0.348,-0.523 -0.593,-0.697c-0.138,-0.099 -0.351,-0.182 -0.637,-0.249c-0.287,-0.067 -0.509,-0.1 -0.667,-0.1c-0.49,0 -0.781,0.035 -0.871,0.106l-0.006,0.083l0.023,0.67l-0.006,0.119c-0.008,0.106 -0.011,0.27 -0.011,0.491c0,0.807 0.011,1.308 0.035,1.506l0,0.332l0.077,2.709c0,0.039 -0.005,0.112 -0.015,0.219c-0.01,0.107 -0.014,0.199 -0.014,0.279c0,0.189 0.015,0.333 0.047,0.432c0.095,0.028 0.371,0.093 0.83,0.196c0.213,0.051 0.33,0.081 0.349,0.089c0.032,0.012 0.06,0.037 0.083,0.077c-0.015,0.059 -0.036,0.098 -0.062,0.115c-0.025,0.018 -0.076,0.027 -0.151,0.027c-0.047,0 -0.158,-0.01 -0.332,-0.03c-0.34,-0.035 -0.606,-0.053 -0.8,-0.053l-1.043,0.042l-0.623,-0.018c-0.039,0 -0.154,0.004 -0.343,0.012l-0.006,-0.155l0.77,-0.148c0.127,-0.035 0.204,-0.071 0.231,-0.106c0.04,-0.056 0.06,-0.164 0.06,-0.326c0,-0.036 0.002,-0.113 0.006,-0.232c0.004,-0.083 0.006,-0.197 0.006,-0.343c0,-0.467 -0.02,-1.46 -0.06,-2.982c-0.016,-0.711 -0.023,-1.434 -0.023,-2.169l0,-0.101c0,-0.284 -0.044,-0.464 -0.131,-0.539c-0.146,-0.131 -0.512,-0.237 -1.096,-0.32c-0.02,-0.044 -0.03,-0.079 -0.03,-0.107c0,-0.032 0.012,-0.069 0.036,-0.113Z" style="fill-rule:nonzero;"/><path d="M6.659,7.682c0.036,-0.036 0.066,-0.058 0.091,-0.066c0.061,-0.019 0.165,-0.035 0.312,-0.047c0.348,-0.024 0.564,-0.059 0.646,-0.107c0.05,-0.079 0.076,-0.189 0.076,-0.332l-0.006,-0.415l0.006,-1.505l-0.011,-0.711l0.005,-1.488l-0.027,-1.689c-0.003,-0.403 -0.027,-0.63 -0.07,-0.682c-0.064,-0.075 -0.256,-0.118 -0.576,-0.13c-0.136,-0.004 -0.256,-0.016 -0.36,-0.036c-0.047,-0.027 -0.07,-0.063 -0.07,-0.107c0,-0.031 0.009,-0.069 0.027,-0.112c0.032,-0.02 0.061,-0.03 0.086,-0.03c0.05,0 0.111,0.002 0.183,0.006c0.212,0.02 0.43,0.03 0.656,0.03l0.399,-0.012l0.947,0.024c0.474,0 0.843,-0.006 1.109,-0.018c0.265,-0.012 0.445,-0.018 0.538,-0.018c0.082,0 0.287,0.008 0.613,0.024l0.765,-0.006l0.091,0.018l0.447,-0.018l0.054,0.03c0.018,0.031 0.03,0.065 0.037,0.1c0,0.056 -0.008,0.141 -0.024,0.255c-0.016,0.115 -0.024,0.186 -0.024,0.214c0,0.41 0.012,0.758 0.037,1.043c-0.003,0.023 -0.014,0.039 -0.032,0.047c-0.039,0 -0.075,-0.006 -0.107,-0.018c-0.04,-0.075 -0.093,-0.207 -0.159,-0.397c-0.067,-0.189 -0.166,-0.409 -0.299,-0.658c-0.09,-0.166 -0.16,-0.264 -0.21,-0.296c-0.05,-0.032 -0.154,-0.047 -0.312,-0.047c-0.032,0 -0.196,-0.004 -0.49,-0.012c-0.079,-0.004 -0.156,-0.006 -0.231,-0.006l-1.534,0.035l-0.135,0c-0.197,0 -0.315,0.028 -0.355,0.083c-0.061,0.095 -0.091,0.374 -0.091,0.836c0,0.047 0.009,0.522 0.027,1.423l0,0.823c0.039,0.012 0.082,0.018 0.129,0.018l0.091,0c0.061,0 0.151,0.002 0.269,0.006c0.187,0.008 0.313,0.012 0.377,0.012c0.043,0 0.081,-0.002 0.113,-0.006c0.388,-0.016 0.886,-0.024 1.496,-0.024c0.191,-0.035 0.302,-0.077 0.334,-0.124c0.054,-0.071 0.094,-0.257 0.121,-0.557c0.027,-0.301 0.087,-0.471 0.18,-0.51c0.047,0 0.09,0.01 0.13,0.03c0.007,0.031 0.01,0.061 0.01,0.089c0,0.027 -0.003,0.073 -0.01,0.136c-0.018,0.146 -0.027,0.604 -0.027,1.375c0,0.205 0.01,0.435 0.029,0.688c0.02,0.252 0.03,0.389 0.03,0.408c0,0.036 -0.005,0.083 -0.016,0.143c-0.029,0.016 -0.052,0.023 -0.07,0.023l-0.038,0c-0.057,-0.11 -0.113,-0.282 -0.167,-0.515c-0.093,-0.399 -0.191,-0.649 -0.293,-0.75c-0.102,-0.101 -0.268,-0.151 -0.498,-0.151c-0.05,0 -0.142,0.003 -0.274,0.009c-0.133,0.006 -0.33,0.009 -0.592,0.009l-0.35,0c-0.499,0 -0.825,0.011 -0.98,0.035l-0.005,0.196l0.005,1.09l-0.005,0.688l0.005,0.67c0.004,0.403 0.027,0.636 0.07,0.699c0.061,0.087 0.194,0.131 0.399,0.131l0.328,-0.006c0.029,0 0.141,0.003 0.336,0.008c0.196,0.006 0.437,0.009 0.724,0.009c0.693,0 1.154,-0.032 1.383,-0.097c0.23,-0.066 0.419,-0.181 0.568,-0.347c0.149,-0.166 0.336,-0.524 0.562,-1.073c0.069,-0.162 0.137,-0.243 0.205,-0.243c0.032,0 0.068,0.016 0.108,0.047c-0.104,0.392 -0.164,0.648 -0.178,0.771c-0.039,0.277 -0.063,0.559 -0.07,0.848c0,0.13 -0.029,0.239 -0.086,0.326l-0.119,0l-1.512,0.017l-0.678,-0.006l-1.615,0.024l-0.656,0c-0.083,0 -0.16,0.002 -0.232,0.006c-0.645,0.032 -1.121,0.047 -1.426,0.047c-0.054,0 -0.09,-0.009 -0.11,-0.029c-0.02,-0.02 -0.03,-0.05 -0.03,-0.089l0.006,-0.059Z" style="fill-rule:nonzero;"/><path d="M13.688,7.599c0.576,-0.068 0.902,-0.115 0.978,-0.143c0.051,-0.019 0.098,-0.079 0.142,-0.177l0,-0.066c0,-0.098 0.016,-0.456 0.047,-1.072c0.008,-0.174 0.012,-0.344 0.012,-0.51l-0.018,-0.706l0.012,-0.8l-0.006,-1.487l0.006,-1.067c0.004,-0.451 -0.03,-0.725 -0.104,-0.824c-0.073,-0.099 -0.261,-0.169 -0.566,-0.211c-0.304,-0.041 -0.472,-0.072 -0.503,-0.091c-0.032,-0.02 -0.048,-0.052 -0.048,-0.095c0,-0.028 0.006,-0.064 0.018,-0.107c0.039,-0.036 0.13,-0.055 0.273,-0.059c0.019,0 0.074,-0.005 0.163,-0.015c0.088,-0.01 0.172,-0.015 0.251,-0.015l0.486,0l1.559,-0.018c0.882,0 1.499,0.066 1.853,0.196c0.353,0.13 0.635,0.351 0.844,0.661c0.21,0.31 0.314,0.657 0.314,1.04c0,0.727 -0.381,1.282 -1.144,1.666c-0.13,0.067 -0.233,0.126 -0.308,0.177c0.135,0.285 0.322,0.627 0.563,1.026l0.753,1.292c0.3,0.474 0.508,0.771 0.622,0.892c0.115,0.12 0.254,0.22 0.418,0.299c0.164,0.079 0.44,0.154 0.827,0.225c0.004,0.04 0.006,0.072 0.006,0.095c0,0.024 -0.002,0.054 -0.006,0.089c-0.541,0.008 -1.175,0.012 -1.903,0.012c-0.051,0 -0.122,-0.004 -0.213,-0.012c-0.28,-0.537 -0.61,-1.128 -0.99,-1.772l-0.877,-1.6c-0.119,-0.166 -0.216,-0.27 -0.293,-0.312c-0.077,-0.041 -0.179,-0.062 -0.306,-0.062l-0.503,0.006l-0.166,-0.006c-0.012,0.127 -0.018,0.386 -0.018,0.777l0,2.027c-0.004,0.075 0.012,0.18 0.047,0.314c0.032,0.075 0.086,0.135 0.163,0.181c0.077,0.045 0.3,0.113 0.667,0.204l0.243,0.059c0.032,0.04 0.047,0.093 0.047,0.161c-0.106,0.019 -0.181,0.029 -0.225,0.029c-0.355,0 -0.606,-0.004 -0.753,-0.012c-0.075,-0.004 -0.136,-0.006 -0.183,-0.006l-0.806,0.012l-0.789,-0.006c-0.035,0 -0.215,0.006 -0.539,0.018l-0.119,-0.024l-0.011,-0.059c0,-0.035 0.027,-0.077 0.083,-0.124Zm2.204,-3.877c0.107,0.004 0.186,0.006 0.238,0.006c0.284,0 0.612,-0.033 0.983,-0.101c0.261,-0.051 0.473,-0.135 0.635,-0.251c0.162,-0.117 0.297,-0.29 0.406,-0.519c0.108,-0.229 0.163,-0.466 0.163,-0.711c0,-0.269 -0.085,-0.554 -0.255,-0.854c-0.131,-0.229 -0.351,-0.421 -0.661,-0.575c-0.31,-0.154 -0.683,-0.231 -1.117,-0.231c-0.107,0 -0.245,0.006 -0.415,0.018c-0.016,0.205 -0.024,0.363 -0.024,0.474l0.03,1.108l-0.006,0.457c0,0.308 0.008,0.701 0.023,1.179Z" style="fill-rule:nonzero;"/><path d="M21.501,7.682c0.036,-0.036 0.066,-0.058 0.091,-0.066c0.061,-0.019 0.165,-0.035 0.313,-0.047c0.348,-0.024 0.563,-0.059 0.645,-0.107c0.051,-0.079 0.076,-0.189 0.076,-0.332l-0.006,-0.415l0.006,-1.505l-0.011,-0.711l0.005,-1.488l-0.027,-1.689c-0.003,-0.403 -0.026,-0.63 -0.07,-0.682c-0.064,-0.075 -0.256,-0.118 -0.575,-0.13c-0.137,-0.004 -0.257,-0.016 -0.361,-0.036c-0.047,-0.027 -0.07,-0.063 -0.07,-0.107c0,-0.031 0.009,-0.069 0.027,-0.112c0.032,-0.02 0.061,-0.03 0.086,-0.03c0.05,0 0.111,0.002 0.183,0.006c0.212,0.02 0.431,0.03 0.657,0.03l0.398,-0.012l0.947,0.024c0.474,0 0.843,-0.006 1.109,-0.018c0.265,-0.012 0.445,-0.018 0.538,-0.018c0.083,0 0.287,0.008 0.614,0.024l0.764,-0.006l0.091,0.018l0.447,-0.018l0.054,0.03c0.018,0.031 0.03,0.065 0.037,0.1c0,0.056 -0.008,0.141 -0.024,0.255c-0.016,0.115 -0.024,0.186 -0.024,0.214c0,0.41 0.013,0.758 0.038,1.043c-0.004,0.023 -0.015,0.039 -0.033,0.047c-0.039,0 -0.075,-0.006 -0.107,-0.018c-0.04,-0.075 -0.093,-0.207 -0.159,-0.397c-0.066,-0.189 -0.166,-0.409 -0.299,-0.658c-0.089,-0.166 -0.159,-0.264 -0.21,-0.296c-0.05,-0.032 -0.154,-0.047 -0.312,-0.047c-0.032,0 -0.195,-0.004 -0.49,-0.012c-0.078,-0.004 -0.156,-0.006 -0.231,-0.006l-1.534,0.035l-0.134,0c-0.198,0 -0.316,0.028 -0.356,0.083c-0.061,0.095 -0.091,0.374 -0.091,0.836c0,0.047 0.009,0.522 0.027,1.423l0,0.823c0.039,0.012 0.082,0.018 0.129,0.018l0.092,0c0.061,0 0.15,0.002 0.269,0.006c0.186,0.008 0.312,0.012 0.376,0.012c0.043,0 0.081,-0.002 0.113,-0.006c0.388,-0.016 0.887,-0.024 1.497,-0.024c0.19,-0.035 0.301,-0.077 0.333,-0.124c0.054,-0.071 0.094,-0.257 0.121,-0.557c0.027,-0.301 0.087,-0.471 0.181,-0.51c0.046,0 0.089,0.01 0.129,0.03c0.007,0.031 0.011,0.061 0.011,0.089c0,0.027 -0.004,0.073 -0.011,0.136c-0.018,0.146 -0.027,0.604 -0.027,1.375c0,0.205 0.01,0.435 0.029,0.688c0.02,0.252 0.03,0.389 0.03,0.408c0,0.036 -0.005,0.083 -0.016,0.143c-0.029,0.016 -0.052,0.023 -0.07,0.023l-0.038,0c-0.057,-0.11 -0.113,-0.282 -0.167,-0.515c-0.093,-0.399 -0.191,-0.649 -0.293,-0.75c-0.102,-0.101 -0.268,-0.151 -0.498,-0.151c-0.05,0 -0.141,0.003 -0.274,0.009c-0.133,0.006 -0.33,0.009 -0.592,0.009l-0.35,0c-0.499,0 -0.825,0.011 -0.98,0.035l-0.005,0.196l0.005,1.09l-0.005,0.688l0.005,0.67c0.004,0.403 0.027,0.636 0.07,0.699c0.061,0.087 0.194,0.131 0.399,0.131l0.328,-0.006c0.029,0 0.141,0.003 0.336,0.008c0.196,0.006 0.437,0.009 0.724,0.009c0.693,0 1.154,-0.032 1.383,-0.097c0.23,-0.066 0.419,-0.181 0.568,-0.347c0.149,-0.166 0.337,-0.524 0.563,-1.073c0.068,-0.162 0.136,-0.243 0.204,-0.243c0.032,0 0.068,0.016 0.108,0.047c-0.104,0.392 -0.163,0.648 -0.178,0.771c-0.039,0.277 -0.063,0.559 -0.07,0.848c0,0.13 -0.029,0.239 -0.086,0.326l-0.118,0l-1.513,0.017l-0.678,-0.006l-1.614,0.024l-0.657,0c-0.082,0 -0.16,0.002 -0.231,0.006c-0.646,0.032 -1.122,0.047 -1.427,0.047c-0.053,0 -0.09,-0.009 -0.11,-0.029c-0.02,-0.02 -0.03,-0.05 -0.03,-0.089l0.006,-0.059Z" style="fill-rule:nonzero;"/><path d="M35.794,0.581l0.066,0.901c0.023,0.272 0.035,0.458 0.035,0.557l-0.166,0.03c-0.265,-0.601 -0.593,-1.052 -0.987,-1.352c-0.393,-0.3 -0.874,-0.45 -1.443,-0.45c-0.695,0 -1.237,0.085 -1.624,0.255c-0.561,0.241 -1.041,0.659 -1.44,1.256c-0.399,0.597 -0.599,1.316 -0.599,2.158c0,0.486 0.073,0.922 0.219,1.31c0.147,0.387 0.353,0.747 0.62,1.081c0.267,0.334 0.582,0.624 0.945,0.869c0.237,0.162 0.52,0.284 0.848,0.367c0.185,0.044 0.462,0.065 0.83,0.065c0.237,0 0.499,-0.033 0.788,-0.1c0.288,-0.068 0.506,-0.158 0.652,-0.27c0.146,-0.113 0.246,-0.24 0.299,-0.382c0.054,-0.143 0.08,-0.419 0.08,-0.83c0,-0.684 -0.045,-1.082 -0.136,-1.195c-0.091,-0.112 -0.377,-0.186 -0.86,-0.222l-0.237,-0.018l-0.16,0.006c-0.023,-0.004 -0.055,-0.01 -0.095,-0.018l-0.088,-0.148c0,-0.019 0.013,-0.045 0.041,-0.077c0.206,-0.031 0.652,-0.047 1.34,-0.047c0.154,0 0.405,0.004 0.752,0.012l0.611,0.023l0.551,-0.006c0.107,0 0.235,0.004 0.385,0.012c0.028,0.004 0.046,0.011 0.054,0.021c0.008,0.01 0.012,0.027 0.012,0.05c0,0.044 -0.01,0.099 -0.03,0.166c-0.166,0.036 -0.294,0.054 -0.385,0.054l-0.386,-0.006c-0.13,0 -0.235,0.045 -0.314,0.136c-0.039,0.044 -0.059,0.192 -0.059,0.445l0.006,0.776c0,0.534 -0.022,0.873 -0.065,1.02c-0.024,0.087 -0.073,0.165 -0.148,0.234c-0.076,0.069 -0.234,0.151 -0.475,0.246c-0.343,0.138 -0.656,0.231 -0.936,0.278c-0.522,0.091 -1.026,0.137 -1.512,0.137c-0.782,0 -1.423,-0.1 -1.923,-0.3c-0.5,-0.199 -0.931,-0.477 -1.292,-0.832c-0.362,-0.356 -0.619,-0.716 -0.774,-1.079c-0.233,-0.534 -0.349,-1.077 -0.349,-1.63c0,-0.692 0.182,-1.368 0.548,-2.03c0.365,-0.662 0.955,-1.2 1.769,-1.615c0.573,-0.293 1.352,-0.439 2.336,-0.439c0.679,0 1.235,0.059 1.668,0.178c0.433,0.118 0.776,0.253 1.028,0.403Z" style="fill-rule:nonzero;"/><path d="M37.17,7.599c0.576,-0.068 0.902,-0.115 0.978,-0.143c0.051,-0.019 0.098,-0.079 0.142,-0.177l0,-0.066c0,-0.098 0.016,-0.456 0.047,-1.072c0.008,-0.174 0.012,-0.344 0.012,-0.51l-0.018,-0.706l0.012,-0.8l-0.006,-1.487l0.006,-1.067c0.004,-0.451 -0.031,-0.725 -0.104,-0.824c-0.073,-0.099 -0.261,-0.169 -0.566,-0.211c-0.304,-0.041 -0.472,-0.072 -0.503,-0.091c-0.032,-0.02 -0.048,-0.052 -0.048,-0.095c0,-0.028 0.006,-0.064 0.018,-0.107c0.039,-0.036 0.13,-0.055 0.273,-0.059c0.019,0 0.074,-0.005 0.163,-0.015c0.088,-0.01 0.172,-0.015 0.251,-0.015l0.486,0l1.559,-0.018c0.881,0 1.499,0.066 1.853,0.196c0.353,0.13 0.635,0.351 0.844,0.661c0.21,0.31 0.314,0.657 0.314,1.04c0,0.727 -0.381,1.282 -1.144,1.666c-0.13,0.067 -0.233,0.126 -0.308,0.177c0.135,0.285 0.322,0.627 0.563,1.026l0.753,1.292c0.3,0.474 0.508,0.771 0.622,0.892c0.115,0.12 0.254,0.22 0.418,0.299c0.164,0.079 0.44,0.154 0.827,0.225c0.004,0.04 0.006,0.072 0.006,0.095c0,0.024 -0.002,0.054 -0.006,0.089c-0.541,0.008 -1.176,0.012 -1.903,0.012c-0.051,0 -0.122,-0.004 -0.213,-0.012c-0.281,-0.537 -0.61,-1.128 -0.99,-1.772l-0.877,-1.6c-0.119,-0.166 -0.216,-0.27 -0.293,-0.312c-0.077,-0.041 -0.179,-0.062 -0.306,-0.062l-0.503,0.006l-0.166,-0.006c-0.012,0.127 -0.018,0.386 -0.018,0.777l0,2.027c-0.004,0.075 0.012,0.18 0.047,0.314c0.032,0.075 0.086,0.135 0.163,0.181c0.077,0.045 0.3,0.113 0.667,0.204l0.243,0.059c0.032,0.04 0.047,0.093 0.047,0.161c-0.106,0.019 -0.181,0.029 -0.225,0.029c-0.355,0 -0.606,-0.004 -0.753,-0.012c-0.075,-0.004 -0.136,-0.006 -0.183,-0.006l-0.806,0.012l-0.789,-0.006c-0.035,0 -0.215,0.006 -0.539,0.018l-0.119,-0.024l-0.011,-0.059c0,-0.035 0.027,-0.077 0.083,-0.124Zm2.204,-3.877c0.107,0.004 0.186,0.006 0.238,0.006c0.284,0 0.612,-0.033 0.983,-0.101c0.261,-0.051 0.473,-0.135 0.635,-0.251c0.162,-0.117 0.297,-0.29 0.406,-0.519c0.108,-0.229 0.163,-0.466 0.163,-0.711c0,-0.269 -0.085,-0.554 -0.255,-0.854c-0.131,-0.229 -0.351,-0.421 -0.661,-0.575c-0.31,-0.154 -0.683,-0.231 -1.117,-0.231c-0.107,0 -0.245,0.006 -0.415,0.018c-0.016,0.205 -0.024,0.363 -0.024,0.474l0.03,1.108l-0.006,0.457c0,0.308 0.008,0.701 0.023,1.179Z" style="fill-rule:nonzero;"/><path d="M44.86,7.587c0.087,-0.036 0.176,-0.058 0.267,-0.065c0.604,-0.04 0.95,-0.112 1.037,-0.217c0.087,-0.104 0.13,-0.611 0.13,-1.52l-0.006,-0.622l0,-0.652l-0.023,-0.718l0.012,-0.42l-0.006,-0.463l0,-0.545l-0.012,-0.243l0.012,-0.308c0.004,-0.071 0.006,-0.154 0.006,-0.249c0,-0.249 -0.012,-0.512 -0.036,-0.789c-0.016,-0.055 -0.038,-0.108 -0.065,-0.16c-0.146,-0.075 -0.382,-0.125 -0.708,-0.151c-0.326,-0.025 -0.511,-0.054 -0.555,-0.086c-0.031,-0.023 -0.049,-0.085 -0.053,-0.183l0.498,0l1.571,0.035c0.403,0 0.94,-0.012 1.612,-0.035c0,0.063 -0.004,0.122 -0.012,0.177c-0.079,0.02 -0.212,0.042 -0.397,0.066c-0.376,0.043 -0.605,0.085 -0.688,0.124c-0.051,0.02 -0.089,0.053 -0.112,0.101c-0.04,0.071 -0.064,0.203 -0.072,0.397l-0.029,0.765l0.024,2.637l0,1.043c-0.008,0.328 -0.012,0.552 -0.012,0.67c0,0.443 0.011,0.725 0.032,0.848c0.022,0.122 0.06,0.21 0.113,0.263c0.053,0.054 0.141,0.096 0.264,0.128c0.181,0.043 0.324,0.067 0.426,0.071c0.222,0.008 0.362,0.04 0.421,0.095c0.012,0.051 0.018,0.095 0.018,0.13l0,0.048c-0.36,0.012 -0.624,0.017 -0.794,0.017c-0.099,0 -0.275,-0.005 -0.528,-0.017l-0.818,0.012l-1.393,-0.006l-0.112,0l-0.012,-0.178Z" style="fill-rule:nonzero;"/><path d="M49.027,0.528l-0.006,-0.285c0.612,0 1.061,-0.016 1.345,-0.047c0.111,-0.012 0.188,-0.018 0.231,-0.018c0.036,0 0.089,0.002 0.16,0.006c0.166,0.138 0.32,0.296 0.463,0.474c0.031,0.035 0.067,0.075 0.106,0.118l1.251,1.381l0.178,0.214c0.253,0.296 0.483,0.549 0.69,0.759c0.208,0.209 0.612,0.646 1.212,1.309l1.417,1.571c0.138,0.154 0.316,0.346 0.534,0.575l0.005,-0.095c-0.023,-0.549 -0.035,-0.839 -0.035,-0.871l0.024,-0.356l-0.012,-0.557l0,-0.255c0,-0.162 -0.014,-0.662 -0.042,-1.499c-0.004,-0.115 -0.019,-0.331 -0.047,-0.649c-0.028,-0.318 -0.042,-0.598 -0.042,-0.839c0,-0.435 -0.025,-0.688 -0.077,-0.759c-0.035,-0.051 -0.203,-0.104 -0.504,-0.16c-0.071,-0.004 -0.181,-0.016 -0.331,-0.035c-0.178,-0.008 -0.283,-0.018 -0.315,-0.03c-0.031,-0.012 -0.063,-0.045 -0.094,-0.101c0.007,-0.063 0.025,-0.122 0.053,-0.177c0.107,-0.032 0.211,-0.048 0.314,-0.048c0.111,0 0.248,0.014 0.412,0.042c0.164,0.027 0.311,0.041 0.442,0.041c0.181,0 0.464,-0.012 0.847,-0.035c0.218,-0.016 0.368,-0.024 0.451,-0.024l0.1,0l-0.011,0.184c-0.064,0.027 -0.151,0.044 -0.261,0.05c-0.111,0.006 -0.214,0.023 -0.308,0.05c-0.143,0.044 -0.228,0.081 -0.255,0.113c-0.095,0.103 -0.143,0.207 -0.143,0.314l0.066,1.873l0.047,0.86l-0.006,0.248l0.036,1.192c0.023,0.814 0.035,1.521 0.035,2.122c0,0.13 -0.008,0.413 -0.023,0.847l-0.279,0.024c-0.138,-0.158 -0.615,-0.656 -1.428,-1.494c-0.19,-0.193 -0.319,-0.33 -0.386,-0.409l-0.51,-0.586c-0.197,-0.218 -0.325,-0.356 -0.385,-0.415c-0.059,-0.06 -0.103,-0.103 -0.13,-0.131c-0.431,-0.49 -0.99,-1.102 -1.678,-1.837c-0.185,-0.198 -0.458,-0.506 -0.818,-0.925c-0.225,-0.264 -0.367,-0.427 -0.426,-0.486c-0.06,-0.059 -0.141,-0.126 -0.243,-0.201l-0.018,0.201c0,0.771 0.02,1.834 0.059,3.189l0.042,1.962c0.004,0.166 0.014,0.326 0.029,0.48l0.208,0.047c0.375,0.036 0.745,0.089 1.108,0.16c0.028,0.024 0.052,0.042 0.071,0.054l-0.006,0.225c-0.063,0.02 -0.114,0.03 -0.154,0.03c-0.043,0 -0.097,-0.004 -0.16,-0.012c-0.391,-0.032 -0.867,-0.048 -1.428,-0.048c-0.395,0 -0.743,0.01 -1.043,0.03l-0.083,0.006c-0.036,0 -0.087,-0.004 -0.154,-0.012l-0.006,-0.178l0.154,-0.071l0.278,-0.041c0.249,-0.036 0.431,-0.075 0.546,-0.119c0.075,-0.027 0.136,-0.069 0.183,-0.124c0.044,-0.273 0.066,-0.672 0.066,-1.198c0,-0.245 -0.006,-0.693 -0.018,-1.345l0,-0.806l-0.012,-1.683c-0.008,-0.751 -0.034,-1.194 -0.077,-1.328c-0.024,-0.071 -0.073,-0.135 -0.148,-0.19c-0.151,-0.107 -0.347,-0.174 -0.59,-0.201c-0.243,-0.028 -0.4,-0.052 -0.471,-0.071Z" style="fill-rule:nonzero;"/><path d="M58.003,7.682c0.036,-0.036 0.066,-0.058 0.091,-0.066c0.061,-0.019 0.165,-0.035 0.312,-0.047c0.348,-0.024 0.564,-0.059 0.646,-0.107c0.05,-0.079 0.076,-0.189 0.076,-0.332l-0.006,-0.415l0.006,-1.505l-0.011,-0.711l0.005,-1.488l-0.027,-1.689c-0.003,-0.403 -0.027,-0.63 -0.07,-0.682c-0.064,-0.075 -0.256,-0.118 -0.576,-0.13c-0.136,-0.004 -0.256,-0.016 -0.36,-0.036c-0.047,-0.027 -0.07,-0.063 -0.07,-0.107c0,-0.031 0.009,-0.069 0.027,-0.112c0.032,-0.02 0.061,-0.03 0.086,-0.03c0.05,0 0.111,0.002 0.183,0.006c0.212,0.02 0.43,0.03 0.657,0.03l0.398,-0.012l0.947,0.024c0.474,0 0.843,-0.006 1.109,-0.018c0.265,-0.012 0.445,-0.018 0.538,-0.018c0.082,0 0.287,0.008 0.613,0.024l0.765,-0.006l0.091,0.018l0.447,-0.018l0.054,0.03c0.018,0.031 0.03,0.065 0.037,0.1c0,0.056 -0.008,0.141 -0.024,0.255c-0.016,0.115 -0.024,0.186 -0.024,0.214c0,0.41 0.012,0.758 0.038,1.043c-0.004,0.023 -0.015,0.039 -0.033,0.047c-0.039,0 -0.075,-0.006 -0.107,-0.018c-0.04,-0.075 -0.093,-0.207 -0.159,-0.397c-0.066,-0.189 -0.166,-0.409 -0.299,-0.658c-0.09,-0.166 -0.159,-0.264 -0.21,-0.296c-0.05,-0.032 -0.154,-0.047 -0.312,-0.047c-0.032,0 -0.195,-0.004 -0.49,-0.012c-0.079,-0.004 -0.156,-0.006 -0.231,-0.006l-1.534,0.035l-0.134,0c-0.198,0 -0.316,0.028 -0.356,0.083c-0.061,0.095 -0.091,0.374 -0.091,0.836c0,0.047 0.009,0.522 0.027,1.423l0,0.823c0.039,0.012 0.082,0.018 0.129,0.018l0.091,0c0.061,0 0.151,0.002 0.27,0.006c0.186,0.008 0.312,0.012 0.376,0.012c0.043,0 0.081,-0.002 0.113,-0.006c0.388,-0.016 0.887,-0.024 1.496,-0.024c0.191,-0.035 0.302,-0.077 0.334,-0.124c0.054,-0.071 0.094,-0.257 0.121,-0.557c0.027,-0.301 0.087,-0.471 0.181,-0.51c0.046,0 0.089,0.01 0.129,0.03c0.007,0.031 0.01,0.061 0.01,0.089c0,0.027 -0.003,0.073 -0.01,0.136c-0.018,0.146 -0.027,0.604 -0.027,1.375c0,0.205 0.01,0.435 0.029,0.688c0.02,0.252 0.03,0.389 0.03,0.408c0,0.036 -0.005,0.083 -0.016,0.143c-0.029,0.016 -0.052,0.023 -0.07,0.023l-0.038,0c-0.057,-0.11 -0.113,-0.282 -0.167,-0.515c-0.093,-0.399 -0.191,-0.649 -0.293,-0.75c-0.102,-0.101 -0.268,-0.151 -0.498,-0.151c-0.05,0 -0.142,0.003 -0.274,0.009c-0.133,0.006 -0.33,0.009 -0.592,0.009l-0.35,0c-0.499,0 -0.825,0.011 -0.98,0.035l-0.005,0.196l0.005,1.09l-0.005,0.688l0.005,0.67c0.004,0.403 0.027,0.636 0.07,0.699c0.061,0.087 0.194,0.131 0.399,0.131l0.328,-0.006c0.029,0 0.141,0.003 0.336,0.008c0.196,0.006 0.437,0.009 0.724,0.009c0.693,0 1.154,-0.032 1.383,-0.097c0.23,-0.066 0.419,-0.181 0.568,-0.347c0.149,-0.166 0.336,-0.524 0.563,-1.073c0.068,-0.162 0.136,-0.243 0.204,-0.243c0.032,0 0.068,0.016 0.108,0.047c-0.104,0.392 -0.164,0.648 -0.178,0.771c-0.039,0.277 -0.063,0.559 -0.07,0.848c0,0.13 -0.029,0.239 -0.086,0.326l-0.118,0l-1.513,0.017l-0.678,-0.006l-1.614,0.024l-0.657,0c-0.083,0 -0.16,0.002 -0.231,0.006c-0.646,0.032 -1.122,0.047 -1.427,0.047c-0.053,0 -0.09,-0.009 -0.11,-0.029c-0.02,-0.02 -0.03,-0.05 -0.03,-0.089l0.006,-0.059Z" style="fill-rule:nonzero;"/></g><g><path d="M27.186,9.882c0.572,0 1.031,0.172 1.375,0.516c0.345,0.345 0.517,0.807 0.517,1.385c0,0.578 -0.172,1.04 -0.517,1.384c-0.344,0.345 -0.803,0.517 -1.375,0.517l-1.119,0l0,-3.802l1.119,0Zm-0.641,3.385l0.641,0c0.423,0 0.759,-0.14 1.009,-0.42c0.25,-0.28 0.375,-0.636 0.375,-1.067c0,-0.431 -0.126,-0.785 -0.378,-1.061c-0.252,-0.276 -0.587,-0.414 -1.006,-0.414l-0.641,0l0,2.962Z" style="fill-rule:nonzero;"/><path d="M30.063,9.882l2.34,0l0,0.411l-1.862,0l0,1.275l1.753,0l0,0.405l-1.753,0l0,1.294l1.862,0l0,0.417l-2.34,0l0,-3.802Z" style="fill-rule:nonzero;"/><path d="M35.492,10.807c-0.069,-0.371 -0.341,-0.557 -0.816,-0.557c-0.254,0 -0.449,0.056 -0.587,0.167c-0.137,0.11 -0.205,0.243 -0.205,0.399c0,0.155 0.042,0.273 0.127,0.353c0.085,0.081 0.222,0.151 0.411,0.212l0.792,0.272c0.27,0.093 0.485,0.22 0.644,0.381c0.159,0.161 0.239,0.388 0.239,0.68c0,0.292 -0.125,0.538 -0.375,0.737c-0.25,0.2 -0.585,0.3 -1.004,0.3c-0.419,0 -0.763,-0.106 -1.031,-0.318c-0.268,-0.211 -0.406,-0.509 -0.414,-0.891l0.466,0c0,0.249 0.088,0.441 0.263,0.574c0.175,0.133 0.401,0.199 0.677,0.199c0.276,0 0.495,-0.061 0.656,-0.184c0.161,-0.123 0.242,-0.268 0.242,-0.435c0,-0.168 -0.05,-0.3 -0.148,-0.396c-0.099,-0.097 -0.245,-0.178 -0.439,-0.242l-0.671,-0.248c-0.314,-0.105 -0.552,-0.23 -0.713,-0.375c-0.161,-0.145 -0.242,-0.357 -0.242,-0.638c0,-0.28 0.113,-0.513 0.339,-0.701c0.225,-0.187 0.542,-0.281 0.949,-0.281c0.407,0 0.718,0.09 0.934,0.269c0.215,0.179 0.339,0.42 0.371,0.723l-0.465,0Z" style="fill-rule:nonzero;"/><rect x="37.124" y="9.882" width="0.478" height="3.802" style="fill-rule:nonzero;"/><path d="M41.168,13.031c-0.169,0.48 -0.497,0.72 -0.985,0.72c-0.488,0 -0.888,-0.178 -1.2,-0.532c-0.312,-0.355 -0.468,-0.833 -0.468,-1.433c0,-0.601 0.17,-1.078 0.51,-1.433c0.341,-0.355 0.765,-0.532 1.273,-0.532c0.298,0 0.559,0.061 0.783,0.182c0.223,0.12 0.416,0.314 0.577,0.58l-0.459,0.157c-0.262,-0.326 -0.569,-0.49 -0.919,-0.49c-0.351,0 -0.648,0.143 -0.892,0.43c-0.244,0.286 -0.366,0.658 -0.366,1.115c0,0.457 0.105,0.825 0.315,1.103c0.209,0.278 0.491,0.417 0.846,0.417c0.29,0 0.524,-0.096 0.701,-0.29c0.178,-0.193 0.266,-0.479 0.266,-0.858l0,-0.012l-0.955,-0.037l0,-0.314l1.421,0l0,1.88l-0.387,0l-0.061,-0.653Z" style="fill-rule:nonzero;"/><path d="M43.272,9.882l1.886,3.052l0,-3.052l0.478,0l0,3.802l-0.532,0l-1.916,-3.095l0,3.095l-0.484,0l0,-3.802l0.568,0Z" style="fill-rule:nonzero;"/><path d="M48.108,9.845l0.484,0l-1.523,4.861l-0.478,0l1.517,-4.861Z" style="fill-rule:nonzero;"/><path d="M49.469,9.882l1.42,0c0.399,0 0.707,0.094 0.922,0.284c0.216,0.189 0.324,0.427 0.324,0.713c0,0.218 -0.06,0.407 -0.179,0.568c-0.119,0.162 -0.299,0.27 -0.541,0.327c0.238,0.04 0.428,0.143 0.571,0.308c0.144,0.165 0.215,0.353 0.215,0.562c0,0.468 -0.228,0.784 -0.683,0.949c-0.169,0.061 -0.377,0.091 -0.623,0.091l-1.426,0l0,-3.802Zm1.414,3.385c0.29,0 0.498,-0.058 0.623,-0.175c0.125,-0.117 0.187,-0.272 0.187,-0.466c0,-0.193 -0.068,-0.347 -0.205,-0.462c-0.137,-0.115 -0.339,-0.173 -0.605,-0.173l-0.937,0l0,1.276l0.937,0Zm-0.937,-1.687l0.931,0c0.234,0 0.42,-0.057 0.559,-0.172c0.139,-0.115 0.209,-0.273 0.209,-0.475c0,-0.201 -0.068,-0.358 -0.203,-0.471c-0.135,-0.113 -0.323,-0.169 -0.565,-0.169l-0.931,0l0,1.287Z" style="fill-rule:nonzero;"/><path d="M53.622,9.882l0,2.43c0,0.354 0.088,0.61 0.266,0.768c0.177,0.157 0.411,0.235 0.701,0.235c0.29,0 0.524,-0.078 0.701,-0.235c0.178,-0.158 0.266,-0.414 0.266,-0.768l0,-2.43l0.478,0l0,2.43c0,0.475 -0.131,0.834 -0.393,1.076c-0.262,0.242 -0.614,0.363 -1.055,0.363c-0.441,0 -0.792,-0.121 -1.052,-0.363c-0.26,-0.242 -0.39,-0.601 -0.39,-1.076l0,-2.43l0.478,0Z" style="fill-rule:nonzero;"/><rect x="57.182" y="9.882" width="0.478" height="3.802" style="fill-rule:nonzero;"/><path d="M59.353,13.267l1.692,0l0,0.417l-2.17,0l0,-3.802l0.478,0l0,3.385Z" style="fill-rule:nonzero;"/><path d="M62.817,9.882c0.572,0 1.03,0.172 1.375,0.516c0.344,0.345 0.517,0.807 0.517,1.385c0,0.578 -0.173,1.04 -0.517,1.384c-0.345,0.345 -0.803,0.517 -1.375,0.517l-1.119,0l0,-3.802l1.119,0Zm-0.641,3.385l0.641,0c0.423,0 0.759,-0.14 1.009,-0.42c0.25,-0.28 0.375,-0.636 0.375,-1.067c0,-0.431 -0.126,-0.785 -0.378,-1.061c-0.252,-0.276 -0.587,-0.414 -1.006,-0.414l-0.641,0l0,2.962Z" style="fill-rule:nonzero;"/></g><rect x="0.246" y="11.617" width="23.219" height="0.331"/></svg>